<svg xmlns="http://www.w3.org/2000/svg" width="20" height="10" fill="none" viewBox="0 0 24 10"><path fill="#000" d="M1.81104 3.23101C1.76404 3.23101 1.75304 3.20801 1.77604 3.17201L2.02204 2.85701C2.04504 2.82201 2.10304 2.79901 2.15004 2.79901H6.32204C6.36804 2.79901 6.38004 2.83401 6.35704 2.86901L6.15804 3.17201C6.13504 3.20801 6.07604 3.24201 6.04104 3.24201L1.81104 3.23101ZM0.0470373 4.30601C3.72976e-05 4.30601 -0.0119627 4.28301 0.0120373 4.24801L0.257037 3.93201C0.280037 3.89701 0.339037 3.87401 0.386037 3.87401H5.71404C5.76104 3.87401 5.78404 3.90901 5.77204 3.94401L5.67904 4.22401C5.66704 4.27101 5.62104 4.29401 5.57404 4.29401L0.0470373 4.30601ZM2.87504 5.38101C2.82804 5.38101 2.81604 5.34601 2.84004 5.31101L3.00304 5.01901C3.02604 4.98401 3.07304 4.94901 3.12004 4.94901H5.45704C5.50404 4.94901 5.52704 4.98401 5.52704 5.03101L5.50404 5.31101C5.50404 5.35801 5.45704 5.39301 5.42204 5.39301L2.87504 5.38101ZM15.004 3.02101C14.268 3.20801 13.765 3.34801 13.041 3.53501C12.865 3.58101 12.854 3.59301 12.701 3.41801C12.527 3.21901 12.398 3.09101 12.153 2.97401C11.416 2.61201 10.703 2.71701 10.038 3.14901C9.24304 3.66301 8.83404 4.42301 8.84604 5.36901C8.85704 6.30401 9.50004 7.07501 10.423 7.20401C11.218 7.30901 11.883 7.02901 12.41 6.43401C12.515 6.30401 12.608 6.16401 12.725 6.00001H10.47C10.225 6.00001 10.166 5.84801 10.248 5.65001C10.4 5.28801 10.68 4.68001 10.844 4.37601C10.8691 4.3197 10.9101 4.27196 10.962 4.23872C11.0139 4.20548 11.0744 4.1882 11.136 4.18901H15.389C15.366 4.50501 15.366 4.82001 15.319 5.13601C15.198 5.96794 14.8684 6.75571 14.361 7.42601C13.52 8.53601 12.421 9.22601 11.031 9.41201C9.88604 9.56401 8.82204 9.34201 7.88804 8.64201C7.02304 7.98701 6.53204 7.12201 6.40404 6.04701C6.25204 4.77301 6.62604 3.62801 7.39704 2.62301C8.22704 1.53701 9.32504 0.847014 10.669 0.603014C11.767 0.403014 12.819 0.533014 13.765 1.17401C14.385 1.58401 14.828 2.14401 15.121 2.82201C15.191 2.92701 15.144 2.98601 15.004 3.02201V3.02101ZM18.872 9.48301C17.808 9.45901 16.838 9.15501 16.02 8.45401C15.3395 7.8805 14.891 7.07897 14.758 6.19901C14.548 4.87901 14.91 3.71001 15.705 2.67001C16.558 1.54801 17.586 0.964014 18.977 0.720014C20.169 0.510014 21.291 0.625014 22.307 1.31501C23.23 1.94501 23.803 2.79901 23.955 3.92001C24.153 5.49801 23.698 6.78301 22.611 7.88201C21.84 8.66501 20.893 9.15502 19.806 9.37702C19.491 9.43702 19.176 9.44701 18.872 9.48301V9.48301ZM21.652 4.76301C21.641 4.61001 21.641 4.49301 21.618 4.37601C21.408 3.21901 20.344 2.56601 19.234 2.82201C18.147 3.06701 17.446 3.75701 17.189 4.85501C16.979 5.76701 17.423 6.69001 18.264 7.06501C18.907 7.34501 19.549 7.30901 20.169 6.99501C21.092 6.51501 21.594 5.76701 21.653 4.76201L21.652 4.76301Z"/></svg>