<?xml version="1.0" standalone="no"?>
<!DOCTYPE svg PUBLIC "-//W3C//DTD SVG 20010904//EN"
 "http://www.w3.org/TR/2001/REC-SVG-20010904/DTD/svg10.dtd">
<svg version="1.0" xmlns="http://www.w3.org/2000/svg"
 width="700.000000pt" height="700.000000pt" viewBox="0 0 700.000000 700.000000"
 preserveAspectRatio="xMidYMid meet">
<metadata>
Created by potrace 1.14, written by Peter Selinger 2001-2017
</metadata>
<g transform="translate(0.000000,700.000000) scale(0.100000,-0.100000)"
fill="#000000" stroke="none">
<path d="M3280 6994 c-19 -2 -84 -9 -145 -14 -578 -56 -1180 -283 -1660 -625
-237 -169 -531 -446 -709 -670 -416 -521 -673 -1147 -748 -1820 -17 -154 -17
-585 0 -730 69 -588 254 -1099 567 -1570 126 -189 242 -332 410 -504 580 -595
1295 -943 2140 -1043 145 -17 576 -17 730 0 822 91 1556 447 2131 1034 203
206 348 390 487 618 274 449 432 915 499 1465 16 135 16 591 0 730 -100 846
-447 1557 -1043 2141 -555 542 -1249 874 -2029 970 -117 15 -553 27 -630 18z
m-1378 -2093 c84 -29 146 -68 214 -137 70 -69 135 -188 155 -281 7 -32 15 -62
19 -66 4 -4 25 16 48 45 57 74 205 216 283 271 93 66 238 133 354 164 87 23
120 26 260 27 168 1 225 -9 340 -56 75 -31 206 -121 241 -164 66 -84 112 -192
129 -307 4 -26 10 -47 14 -47 3 0 22 24 41 52 51 76 212 240 299 306 205 155
449 231 701 219 180 -9 307 -50 435 -142 107 -76 168 -168 207 -313 28 -104
30 -324 4 -467 -48 -267 -130 -540 -380 -1260 -84 -245 -116 -367 -123 -486
-5 -82 -3 -101 15 -141 28 -63 59 -82 137 -81 127 1 255 89 361 249 90 136
188 362 254 591 12 39 27 79 34 88 18 24 93 31 139 12 34 -15 37 -20 37 -54 0
-94 -103 -383 -197 -551 -88 -159 -143 -230 -252 -325 -126 -109 -249 -157
-406 -157 -284 0 -479 187 -501 481 -10 124 9 198 161 654 273 814 358 1187
326 1429 -21 155 -73 250 -165 299 -60 32 -239 32 -346 -2 -258 -80 -499 -299
-702 -636 -111 -184 -122 -220 -374 -1227 -112 -450 -210 -833 -218 -851 -20
-49 -75 -108 -121 -128 -49 -22 -152 -25 -199 -5 -48 20 -88 77 -93 134 -4 37
42 234 225 967 127 506 240 970 252 1030 31 154 38 387 16 486 -30 136 -98
220 -201 249 -56 16 -203 8 -290 -16 -79 -21 -204 -84 -286 -145 -173 -128
-395 -408 -495 -624 -64 -139 -81 -202 -360 -1320 -108 -430 -163 -633 -180
-662 -45 -77 -114 -113 -216 -113 -67 0 -104 16 -142 60 -60 72 -74 -3 228
1207 151 604 280 1135 286 1180 7 45 11 133 9 195 -3 97 -8 121 -29 162 -45
88 -137 111 -239 60 -122 -61 -216 -254 -336 -689 -24 -90 -49 -174 -54 -188
-13 -34 -40 -47 -99 -47 -63 0 -96 24 -94 68 2 73 139 513 203 650 91 196 220
322 379 368 63 19 219 11 292 -15z"/>
</g>
</svg>
